<svg xmlns="http://www.w3.org/2000/svg" viewBox="0 0 1200 900">
  <defs>
    <linearGradient id="bg" x1="0" y1="0" x2="1" y2="1">
      <stop offset="0%" stop-color="#120f1f"/>
      <stop offset="55%" stop-color="#0f1628"/>
      <stop offset="100%" stop-color="#040507"/>
    </linearGradient>
    <linearGradient id="accent" x1="0" y1="0" x2="1" y2="0">
      <stop offset="0%" stop-color="#ff453a"/>
      <stop offset="50%" stop-color="#ff8669"/>
      <stop offset="100%" stop-color="#ffd9a8"/>
    </linearGradient>
    <radialGradient id="glow" cx="50%" cy="35%" r="50%">
      <stop offset="0%" stop-color="#ff7b5f" stop-opacity=".55"/>
      <stop offset="100%" stop-color="#ff7b5f" stop-opacity="0"/>
    </radialGradient>
    <filter id="blur" x="-30%" y="-30%" width="160%" height="160%">
      <feGaussianBlur stdDeviation="24"/>
    </filter>
  </defs>
  <rect width="1200" height="900" fill="url(#bg)"/>
  <circle cx="760" cy="240" r="220" fill="url(#glow)" filter="url(#blur)"/>
  <circle cx="1020" cy="120" r="120" fill="#7dc7ff" opacity=".12" filter="url(#blur)"/>
  <path d="M-80 720 C180 610 250 610 420 680 S760 830 1280 520" fill="none" stroke="#f4f1ea" stroke-width="118" stroke-linecap="round" opacity=".92"/>
  <path d="M-80 720 C180 610 250 610 420 680 S760 830 1280 520" fill="none" stroke="#2c3140" stroke-width="90" stroke-linecap="round"/>
  <path d="M-40 720 C190 620 255 618 420 685 S760 822 1240 524" fill="none" stroke="#d4d6db" stroke-width="4" stroke-dasharray="18 18" opacity=".8"/>
  <path d="M125 616 C245 575 330 578 435 621" fill="none" stroke="#ff6b4a" stroke-width="12" stroke-linecap="round"/>
  <g transform="translate(470 600) rotate(-8)">
    <ellipse cx="140" cy="116" rx="170" ry="34" fill="#000" opacity=".35" filter="url(#blur)"/>
    <path d="M34 106 L82 78 L206 78 L254 106 L218 126 L74 126 Z" fill="#131722"/>
    <path d="M87 76 L122 40 L203 40 L218 76 Z" fill="url(#accent)"/>
    <path d="M56 102 L98 74 L112 84 L85 112 Z" fill="#ffb396"/>
    <path d="M226 102 L207 82 L221 74 L253 102 Z" fill="#ffb396"/>
    <circle cx="86" cy="126" r="28" fill="#0c0f14"/>
    <circle cx="205" cy="126" r="28" fill="#0c0f14"/>
    <circle cx="86" cy="126" r="12" fill="#434857"/>
    <circle cx="205" cy="126" r="12" fill="#434857"/>
    <rect x="128" y="54" width="34" height="23" rx="4" fill="#111722"/>
  </g>
  <text x="95" y="138" fill="#f8f4ee" font-family="Georgia, serif" font-size="62" letter-spacing="2">FORMULA 1</text>
  <text x="95" y="190" fill="#b1b7c8" font-family="Arial, sans-serif" font-size="22" letter-spacing="7">SPEED  MOTION  FOCUS</text>
</svg>
