<svg xmlns="http://www.w3.org/2000/svg" viewBox="0 0 1200 900">
  <defs>
    <linearGradient id="bg" x1="0" y1="0" x2="1" y2="1">
      <stop offset="0%" stop-color="#07111f"/>
      <stop offset="100%" stop-color="#e8ded1"/>
    </linearGradient>
    <filter id="shadow" x="-20%" y="-20%" width="140%" height="140%">
      <feDropShadow dx="0" dy="24" stdDeviation="22" flood-color="#000" flood-opacity=".28"/>
    </filter>
  </defs>
  <rect width="1200" height="900" fill="url(#bg)"/>
  <rect x="112" y="104" width="976" height="694" rx="34" fill="#fbfaf7" filter="url(#shadow)"/>
  <rect x="112" y="104" width="976" height="92" rx="34" fill="#101820"/>
  <text x="170" y="162" fill="#f8f4ee" font-family="Arial, sans-serif" font-size="25" letter-spacing="5">FOREX BUSINESS</text>
  <rect x="170" y="270" width="398" height="248" rx="30" fill="#101820"/>
  <polyline points="210,454 272,390 328,424 390,338 448,368 520,300" fill="none" stroke="#e67e22" stroke-width="18" stroke-linecap="round" stroke-linejoin="round"/>
  <circle cx="520" cy="300" r="18" fill="#f8f4ee"/>
  <rect x="632" y="278" width="322" height="30" rx="15" fill="#101820"/>
  <rect x="632" y="344" width="380" height="18" rx="9" fill="#101820" opacity=".45"/>
  <rect x="632" y="388" width="316" height="18" rx="9" fill="#101820" opacity=".34"/>
  <rect x="632" y="474" width="148" height="56" rx="28" fill="#e67e22"/>
  <rect x="170" y="594" width="250" height="96" rx="24" fill="#ebe1d6"/>
  <rect x="464" y="594" width="250" height="96" rx="24" fill="#e1d4c8"/>
  <rect x="758" y="594" width="250" height="96" rx="24" fill="#d7c6b8"/>
  <text x="204" y="654" fill="#101820" font-family="Georgia, serif" font-size="44">24%</text>
  <text x="498" y="654" fill="#101820" font-family="Georgia, serif" font-size="44">UX</text>
  <text x="792" y="654" fill="#101820" font-family="Georgia, serif" font-size="44">WEB</text>
</svg>
