<svg xmlns="http://www.w3.org/2000/svg" viewBox="0 0 1200 900">
  <defs>
    <linearGradient id="bg" x1="0" y1="0" x2="1" y2="1">
      <stop offset="0%" stop-color="#0d1020"/>
      <stop offset="100%" stop-color="#05070d"/>
    </linearGradient>
    <linearGradient id="bar" x1="0" y1="1" x2="0" y2="0">
      <stop offset="0%" stop-color="#4f46e5"/>
      <stop offset="100%" stop-color="#7dd3fc"/>
    </linearGradient>
  </defs>
  <rect width="1200" height="900" fill="url(#bg)"/>
  <circle cx="200" cy="160" r="120" fill="#1d4ed8" opacity=".15"/>
  <circle cx="1000" cy="160" r="160" fill="#7c3aed" opacity=".14"/>
  <rect x="110" y="110" width="980" height="680" rx="34" fill="#0d1524" stroke="#24324f"/>
  <text x="160" y="190" fill="#f8fafc" font-family="Georgia, serif" font-size="60">GROWTH JOURNEY</text>
  <text x="160" y="230" fill="#94a3b8" font-family="Arial, sans-serif" font-size="24" letter-spacing="4">REACT  FULL STACK  SELF DEVELOPMENT</text>
  <g>
    <rect x="180" y="612" width="110" height="108" rx="20" fill="url(#bar)"/>
    <rect x="336" y="516" width="110" height="204" rx="20" fill="url(#bar)"/>
    <rect x="492" y="422" width="110" height="298" rx="20" fill="url(#bar)"/>
    <rect x="648" y="304" width="110" height="416" rx="20" fill="url(#bar)"/>
    <rect x="804" y="220" width="110" height="500" rx="20" fill="url(#bar)"/>
  </g>
  <path d="M210 470 C340 450 410 410 548 330 S780 218 964 172" fill="none" stroke="#f8fafc" stroke-width="8" stroke-linecap="round" opacity=".88"/>
  <circle cx="964" cy="172" r="14" fill="#f8fafc"/>
  <g font-family="Consolas, monospace" font-size="24">
    <text x="182" y="330" fill="#7dd3fc">const profile = {</text>
    <text x="182" y="364" fill="#e2e8f0">role: 'Junior Frontend Developer',</text>
    <text x="182" y="398" fill="#e2e8f0">projects: ['MeAndYou', 'Apple Website 2023'],</text>
    <text x="182" y="432" fill="#22c55e">goal: 'Better UI, stronger frontend thinking'</text>
    <text x="182" y="466" fill="#7dd3fc">}</text>
  </g>
</svg>
