<svg xmlns="http://www.w3.org/2000/svg" viewBox="0 0 1200 900">
  <defs>
    <linearGradient id="bg" x1="0" y1="0" x2="1" y2="1">
      <stop offset="0%" stop-color="#f7f4ee"/>
      <stop offset="100%" stop-color="#ddd2c5"/>
    </linearGradient>
    <filter id="shadow" x="-20%" y="-20%" width="140%" height="140%">
      <feDropShadow dx="0" dy="20" stdDeviation="18" flood-color="#000" flood-opacity=".18"/>
    </filter>
  </defs>
  <rect width="1200" height="900" fill="url(#bg)"/>
  <rect x="115" y="92" width="970" height="706" rx="34" fill="#fcfaf7" filter="url(#shadow)"/>
  <rect x="115" y="92" width="970" height="92" rx="34" fill="#141414"/>
  <text x="170" y="151" fill="#fcfaf7" font-family="Arial, sans-serif" font-size="24" letter-spacing="4">WEB DESIGN SYSTEM</text>
  <rect x="170" y="240" width="420" height="220" rx="24" fill="#121722"/>
  <rect x="632" y="240" width="282" height="28" rx="14" fill="#111827" opacity=".92"/>
  <rect x="632" y="292" width="370" height="20" rx="10" fill="#6b7280" opacity=".55"/>
  <rect x="632" y="332" width="330" height="20" rx="10" fill="#6b7280" opacity=".45"/>
  <rect x="632" y="392" width="176" height="58" rx="29" fill="#c86b4d"/>
  <rect x="170" y="514" width="832" height="18" rx="9" fill="#1f2937" opacity=".88"/>
  <rect x="170" y="560" width="832" height="18" rx="9" fill="#9ca3af" opacity=".38"/>
  <rect x="170" y="620" width="258" height="118" rx="26" fill="#e4d7ca"/>
  <rect x="456" y="620" width="258" height="118" rx="26" fill="#d8c3b1"/>
  <rect x="744" y="620" width="258" height="118" rx="26" fill="#cab19d"/>
  <text x="170" y="70" fill="#171717" font-family="Georgia, serif" font-size="56" letter-spacing="2">LAYOUT AND HIERARCHY</text>
  <text x="195" y="348" fill="#fcfaf7" font-family="Georgia, serif" font-size="72">UI</text>
  <text x="195" y="406" fill="#b6c2d5" font-family="Arial, sans-serif" font-size="28" letter-spacing="3">ELEGANT STRUCTURE</text>
</svg>
